<?xml version="1.0" encoding="UTF-8"?>
<svg id="_레이어_1" data-name="레이어 1" xmlns="http://www.w3.org/2000/svg" viewBox="0 0 148.47 28.08">
  <defs>
    <style>
      .cls-1 {
        fill: #fafafa;
      }

      .cls-2 {
        isolation: isolate;
      }
    </style>
  </defs>
  <g id="CONNEC" class="cls-2">
    <g class="cls-2">
      <path class="cls-1" d="m2.79,3.5C4.62,1.19,7.28,0,11.15,0c6.77,0,10.67,3.84,10.88,9.93h-6.43c-.17-2.92-1.67-4.66-4.45-4.66-1.56,0-2.69.54-3.43,1.67-.88,1.33-1.22,3.26-1.22,7.11s.34,5.78,1.22,7.1c.75,1.12,1.87,1.67,3.43,1.67,2.79,0,4.32-1.73,4.45-4.66h6.43c-.2,6.08-4.11,9.93-10.88,9.93-3.88,0-6.53-1.19-8.36-3.5C.71,22,0,18.32,0,14.04S.71,6.09,2.79,3.5Z"/>
      <path class="cls-1" d="m45.76,24.58c-1.87,2.31-4.52,3.5-8.4,3.5s-6.53-1.19-8.36-3.5c-2.07-2.58-2.79-6.26-2.79-10.54s.71-7.96,2.79-10.54c1.84-2.31,4.49-3.5,8.36-3.5s6.53,1.19,8.4,3.5c2.07,2.58,2.75,6.25,2.75,10.54s-.68,7.96-2.75,10.54Zm-11.83-3.43c.75,1.12,1.87,1.67,3.43,1.67s2.69-.54,3.43-1.67c.92-1.33,1.26-3.3,1.26-7.1s-.34-5.78-1.26-7.11c-.75-1.12-1.87-1.67-3.43-1.67s-2.69.54-3.43,1.67c-.88,1.33-1.22,3.3-1.22,7.11s.34,5.78,1.22,7.1Z"/>
      <path class="cls-1" d="m59.77,11.46v16.15h-6.39V.48h6.39l7.62,16.15V.48h6.39v27.13h-6.39l-7.62-16.15Z"/>
      <path class="cls-1" d="m85.51,11.46v16.15h-6.39V.48h6.39l7.62,16.15V.48h6.39v27.13h-6.39l-7.62-16.15Z"/>
      <path class="cls-1" d="m104.85.48h17.24v5.24h-10.78v5.37h9.38v5.24h-9.38v6.05h10.95v5.24h-17.41V.48Z"/>
      <path class="cls-1" d="m129.23,3.5c1.84-2.31,4.49-3.5,8.36-3.5,6.77,0,10.67,3.84,10.88,9.93h-6.43c-.17-2.92-1.67-4.66-4.45-4.66-1.56,0-2.69.54-3.43,1.67-.88,1.33-1.22,3.26-1.22,7.11s.34,5.78,1.22,7.1c.75,1.12,1.87,1.67,3.43,1.67,2.79,0,4.32-1.73,4.45-4.66h6.43c-.2,6.08-4.11,9.93-10.88,9.93-3.88,0-6.53-1.19-8.36-3.5-2.07-2.58-2.79-6.26-2.79-10.54s.71-7.96,2.79-10.54Z"/>
    </g>
  </g>
</svg>