<?xml version="1.0" encoding="UTF-8"?>
<svg id="_레이어_1" data-name="레이어 1" xmlns="http://www.w3.org/2000/svg" viewBox="0 0 39.67 27.76">
  <defs>
    <style>
      .cls-1 {
        fill: #fafafa;
      }
    </style>
  </defs>
  <path class="cls-1" d="m36.7,5.24C32.37-.26,24.59-1.63,18.65,2.08c1.15,1.36,1.04,3.37-.24,4.6l-.06.04c-.66.54-1.48.84-2.33.85.85-.01,1.67-.31,2.33-.85l.05-.04c1.28-1.23,1.39-3.24.24-4.6-.5-.71-1.22-1.23-2.05-1.48-4.2-1.2-8.26-.16-11.84,2.88C-.81,8.34-1.6,16.71,2.96,22.52c4.33,5.5,12.11,6.87,18.05,3.17-1.15-1.36-1.04-3.37.24-4.6l.05-.04c.66-.54,1.48-.84,2.34-.85-.85.01-1.67.31-2.33.85l-.05.04c-1.28,1.23-1.39,3.24-.24,4.6.5.71,1.22,1.23,2.05,1.48,4.2,1.2,8.26.16,11.84-2.88,5.57-4.86,6.35-13.23,1.79-19.05Zm-10.47,15.18s0,0-.01,0h0c-.07,0-.14,0-.21,0,1.1-2.11,1.55-4.49,1.29-6.86-.26-2.67-3.37-4.56-5.44-2.85-.91.74-1.42,1.86-1.38,3.03.17,3.71-2.69,6.85-6.4,7.03,0,0,0,0,0,0-3.71.17-6.86-2.69-7.03-6.4,0,0,0,0,0,0-.17-3.71,2.69-6.85,6.4-7.03,0,0,0,0,0,0h.21c-1.1,2.11-1.55,4.49-1.29,6.86.26,2.67,3.38,4.56,5.44,2.85.91-.74,1.42-1.86,1.38-3.03-.17-3.71,2.69-6.85,6.4-7.03,0,0,0,0,0,0,3.71-.18,6.86,2.68,7.04,6.39.18,3.71-2.68,6.86-6.39,7.04Z"/>
</svg>