<svg data-name="구성 요소 50 – 18" xmlns="http://www.w3.org/2000/svg" width="39.667" height="27.767" viewBox="0 0 39.667 27.767">
    <path data-name="패스 145" d="M-3.245-216.026a13.736 13.736 0 0 0-18.055-3.166 3.361 3.361 0 0 1-.244 4.6l-.055.045a3.761 3.761 0 0 1-2.335.849 3.762 3.762 0 0 0 2.334-.849l.055-.045a3.361 3.361 0 0 0 .244-4.6 3.852 3.852 0 0 0-2.047-1.481c-4.2-1.2-8.262-.161-11.844 2.878a13.906 13.906 0 0 0-1.793 19.05 13.737 13.737 0 0 0 18.055 3.165 3.361 3.361 0 0 1 .244-4.6l.055-.045a3.76 3.76 0 0 1 2.335-.848 3.761 3.761 0 0 0-2.334.848l-.055.045a3.361 3.361 0 0 0-.244 4.6 3.849 3.849 0 0 0 2.049 1.48c4.2 1.2 8.264.161 11.844-2.879a13.9 13.9 0 0 0 1.791-19.047zm-22.343 2.126c-.09-.008-.18-.006-.272-.011.092.003.182.001.272.011zm11.862 13.054h-.212a11.985 11.985 0 0 0 1.294-6.857c-.255-2.668-3.374-4.558-5.444-2.853a3.722 3.722 0 0 0-1.38 3.03 6.72 6.72 0 0 1-6.4 7.027A6.723 6.723 0 0 1-32.9-206.9a6.72 6.72 0 0 1 6.4-7.027h.208a11.992 11.992 0 0 0-1.292 6.857c.255 2.667 3.375 4.557 5.444 2.853a3.724 3.724 0 0 0 1.38-3.03 6.72 6.72 0 0 1 6.4-7.029 6.723 6.723 0 0 1 7.037 6.391 6.722 6.722 0 0 1-6.402 7.038z" transform="translate(39.949 221.269)" style="fill:#5f66f2"/>
</svg>
